<svg width="38" height="39" viewBox="0 0 38 39" fill="none" xmlns="http://www.w3.org/2000/svg">
<path d="M18.9991 11.8822C17.0573 11.8822 15.1951 12.6669 13.8221 14.0636C12.4491 15.4604 11.6777 17.3548 11.6777 19.3301C11.6777 21.3054 12.4491 23.1998 13.8221 24.5966C15.1951 25.9933 17.0573 26.778 18.9991 26.778C20.9408 26.778 22.803 25.9933 24.176 24.5966C25.549 23.1998 26.3204 21.3054 26.3204 19.3301C26.3204 17.3548 25.549 15.4604 24.176 14.0636C22.803 12.6669 20.9408 11.8822 18.9991 11.8822ZM18.9991 24.1671C17.7376 24.1671 16.5278 23.6573 15.6358 22.7499C14.7438 21.8425 14.2427 20.6118 14.2427 19.3285C14.2427 18.0452 14.7438 16.8145 15.6358 15.9071C16.5278 14.9997 17.7376 14.4899 18.9991 14.4899C20.2605 14.4899 21.4703 14.9997 22.3623 15.9071C23.2543 16.8145 23.7554 18.0452 23.7554 19.3285C23.7554 20.6118 23.2543 21.8425 22.3623 22.7499C21.4703 23.6573 20.2605 24.1671 18.9991 24.1671Z" fill="#333333"/>
<path d="M26.6092 13.3448C27.5518 13.3448 28.316 12.5674 28.316 11.6084C28.316 10.6495 27.5518 9.87207 26.6092 9.87207C25.6665 9.87207 24.9023 10.6495 24.9023 11.6084C24.9023 12.5674 25.6665 13.3448 26.6092 13.3448Z" fill="#333333"/>
<path d="M32.5113 9.84307C32.1448 8.88016 31.5846 8.00571 30.8668 7.27569C30.1489 6.54568 29.2891 5.9762 28.3424 5.60369C27.2346 5.18064 26.0643 4.9519 24.8812 4.92719C23.3565 4.85954 22.8736 4.84021 19.0071 4.84021C15.1406 4.84021 14.645 4.84021 13.1329 4.92719C11.9508 4.95063 10.7813 5.17943 9.67491 5.60369C8.72797 5.97576 7.86795 6.5451 7.15002 7.27516C6.43209 8.00523 5.8721 8.8799 5.50599 9.84307C5.09006 10.9699 4.86571 12.1606 4.84257 13.3641C4.77449 14.9136 4.75391 15.4048 4.75391 19.3398C4.75391 23.2731 4.75391 23.7741 4.84257 25.3155C4.86632 26.5203 5.08957 27.709 5.50599 28.8381C5.87313 29.801 6.43366 30.6753 7.15176 31.4052C7.86987 32.1352 8.72976 32.7048 9.67649 33.0775C10.7808 33.5176 11.9507 33.7627 13.1361 33.8023C14.6608 33.87 15.1437 33.8909 19.0102 33.8909C22.8767 33.8909 23.3723 33.8909 24.8844 33.8023C26.0673 33.7779 27.2376 33.5497 28.3456 33.1275C29.292 32.7541 30.1516 32.1841 30.8694 31.4539C31.5872 30.7237 32.1475 29.8493 32.5145 28.8865C32.9309 27.759 33.1542 26.5703 33.1779 25.3655C33.246 23.816 33.2666 23.3247 33.2666 19.3897C33.2666 15.4548 33.2666 14.9555 33.1779 13.414C33.1595 12.1935 32.934 10.9855 32.5113 9.84307ZM30.5828 25.1963C30.5726 26.1246 30.4061 27.0442 30.0904 27.9152C29.8526 28.5416 29.4886 29.1104 29.0218 29.585C28.5549 30.0596 27.9956 30.4296 27.3797 30.6711C26.533 30.9908 25.6386 31.1602 24.7356 31.1721C23.2314 31.2429 22.8071 31.2606 18.9501 31.2606C15.0899 31.2606 14.6957 31.2606 13.163 31.1721C12.2604 31.1608 11.3664 30.9914 10.5204 30.6711C9.90241 30.4311 9.34083 30.0618 8.87198 29.5871C8.40314 29.1123 8.03748 28.5428 7.79866 27.9152C7.48745 27.0536 7.32098 26.1448 7.30624 25.2269C7.23816 23.6968 7.22232 23.2651 7.22232 19.3414C7.22232 15.4161 7.22232 15.015 7.30624 13.4543C7.31647 12.5265 7.48303 11.6075 7.79866 10.737C8.28157 9.46616 9.27116 8.46591 10.5204 7.97948C11.3668 7.66078 12.2605 7.49138 13.163 7.47855C14.6687 7.40929 15.0915 7.38996 18.9501 7.38996C22.8087 7.38996 23.2045 7.38996 24.7356 7.47855C25.6387 7.4896 26.5332 7.65906 27.3797 7.97948C27.9955 8.22152 28.5548 8.59187 29.0216 9.06676C29.4884 9.54164 29.8525 10.1106 30.0904 10.737C30.4016 11.5987 30.5681 12.5074 30.5828 13.4253C30.6509 14.9571 30.6683 15.3871 30.6683 19.3124C30.6683 23.2361 30.6683 23.6581 30.6002 25.1979H30.5828L30.5828 25.1963Z" fill="#333333"/>
</svg>
