<svg width="177" height="132" viewBox="0 0 177 132" fill="none" xmlns="http://www.w3.org/2000/svg">
<path d="M47.7073 88.2228C32.6447 59.9999 3.55444 61.8043 0.640225 41.5604C-0.676532 32.4537 3.22014 22.3966 9.60443 18.3495C23.9199 9.28075 41.8368 10.205 58.6539 8.81791C62.7499 8.48733 62.6498 8.41668 66.3414 8.02489C109.241 3.44691 113.443 -0.30325 126.395 0.991335C130.372 1.38585 155.168 3.84105 168.208 21.7719C181.003 39.3497 174.775 61.3632 172.531 69.2722C161.1 109.72 114.873 137.759 83.7367 130.088C73.6782 127.607 66.2808 121.868 65.5989 121.327C65.5609 121.297 65.5276 121.27 65.49 121.239C53.6367 111.534 54.7306 101.383 47.7073 88.2228Z" fill="#FFA843" fill-opacity="0.2"/>
</svg>
