<svg width="150" height="184" viewBox="0 0 150 184" fill="none" xmlns="http://www.w3.org/2000/svg">
<path d="M67.1067 123.271C45.899 83.5334 4.94052 86.074 0.837349 57.571C-1.0166 44.7489 4.46983 30.5888 13.4588 24.8906C33.6147 12.122 58.8413 13.4233 82.5193 11.4703C88.2864 11.0049 88.1454 10.9054 93.3431 10.3537C153.745 3.90804 159.661 -1.37209 177.897 0.45066C183.497 1.00612 218.409 4.46298 236.769 29.7093C254.784 54.4584 246.016 85.4529 242.855 96.5886C226.762 153.538 161.675 193.016 117.835 182.215C103.557 178.694 93.0873 170.51 92.2759 169.864C92.238 169.833 92.2053 169.807 92.1678 169.776C75.4538 156.106 77 141.808 67.1067 123.271Z" fill="#FCCA5A" fill-opacity="0.29"/>
</svg>
