<svg width="221" height="290" viewBox="0 0 221 290" fill="none" xmlns="http://www.w3.org/2000/svg">
<g clip-path="url(#clip0_14_1003)">
<path d="M221 14.0229L184.753 0L183.674 0.430149C172.606 4.73164 123.262 24.9271 110.511 43.2085C97.8459 24.9271 48.4159 4.75314 37.3691 0.430149L36.2903 0L0 14.0229V178.619L86.3028 212.085V46.7787L9.08337 16.8403L36.2688 6.45223C77.0469 22.5613 97.738 37.0573 104.75 45.6818H115.905C125.398 33.1645 160.696 15.8725 184.774 6.45223L211.917 16.8403L134.762 46.7787V212.085L221.065 178.619L221 14.0229Z" fill="#2454A0"/>
<path d="M108.676 52.93C107.517 52.9271 106.37 53.1528 105.299 53.5942C104.228 54.0355 103.256 54.6837 102.437 55.5014C101.619 56.319 100.971 57.2901 100.531 58.3585C100.091 59.4269 99.8675 60.5715 99.8732 61.7265V66.1355H121.19V61.6835C121.173 59.3577 120.237 57.1323 118.585 55.4897C116.933 53.8471 114.699 52.9197 112.365 52.9084L108.676 52.93Z" fill="url(#paint0_linear_14_1003)"/>
<path d="M102.764 85.3416V68.8669H99.8731L99.8516 85.3416H102.764Z" fill="url(#paint1_linear_14_1003)"/>
<path d="M110.511 85.3416L112.928 85.3201V68.8669H107.836L107.858 85.3416H110.511Z" fill="url(#paint2_linear_14_1003)"/>
<path d="M121.168 85.3416V68.8669H118.018V85.3201L121.168 85.3416Z" fill="url(#paint3_linear_14_1003)"/>
<path d="M106.799 88.0945H102.376H99.8516V200.535H109.086V88.0945H106.799Z" fill="url(#paint4_linear_14_1003)"/>
<path d="M118.883 88.0945H114.46H111.936V200.535H121.17V88.0945H118.883Z" fill="url(#paint5_linear_14_1003)"/>
<path d="M120.65 203.288H100.369L106.561 220.881L106.691 221.247H114.35L114.458 220.881L120.65 203.288Z" fill="url(#paint6_linear_14_1003)"/>
</g>
<path d="M40.248 278.624C35.192 278.624 31 276.96 27.672 273.632C24.344 270.272 22.68 266.128 22.68 261.2C22.68 256.272 24.344 252.144 27.672 248.816C31 245.456 35.192 243.776 40.248 243.776C43.288 243.776 46.088 244.496 48.648 245.936C51.24 247.376 53.256 249.328 54.696 251.792L49.896 254.576C49 252.912 47.688 251.6 45.96 250.64C44.264 249.648 42.36 249.152 40.248 249.152C36.664 249.152 33.752 250.288 31.512 252.56C29.304 254.832 28.2 257.712 28.2 261.2C28.2 264.688 29.304 267.568 31.512 269.84C33.752 272.112 36.664 273.248 40.248 273.248C42.36 273.248 44.28 272.768 46.008 271.808C47.736 270.816 49.032 269.488 49.896 267.824L54.696 270.56C53.288 273.024 51.288 274.992 48.696 276.464C46.136 277.904 43.32 278.624 40.248 278.624ZM78.1883 265.664C80.5563 266.752 81.7403 268.592 81.7403 271.184C81.7403 273.2 81.0523 274.848 79.6763 276.128C78.3323 277.376 76.3963 278 73.8683 278H61.5803V254H72.9083C75.3723 254 77.2763 254.624 78.6203 255.872C79.9963 257.088 80.6843 258.672 80.6843 260.624C80.6843 262.896 79.8523 264.576 78.1883 265.664ZM72.5243 258.416H66.5243V263.744H72.5243C74.6363 263.744 75.6923 262.848 75.6923 261.056C75.6923 259.296 74.6363 258.416 72.5243 258.416ZM73.3883 273.488C75.5643 273.488 76.6523 272.544 76.6523 270.656C76.6523 269.824 76.3643 269.184 75.7883 268.736C75.2123 268.256 74.4123 268.016 73.3883 268.016H66.5243V273.488H73.3883ZM92.4353 268.208C92.8193 270.032 93.6993 271.44 95.0753 272.432C96.4513 273.392 98.1313 273.872 100.115 273.872C102.867 273.872 104.931 272.88 106.307 270.896L110.579 273.392C108.211 276.88 104.707 278.624 100.067 278.624C96.1633 278.624 93.0113 277.44 90.6113 275.072C88.2113 272.672 87.0113 269.648 87.0113 266C87.0113 262.416 88.1953 259.424 90.5633 257.024C92.9313 254.592 95.9713 253.376 99.6833 253.376C103.203 253.376 106.083 254.608 108.323 257.072C110.595 259.536 111.731 262.528 111.731 266.048C111.731 266.592 111.667 267.312 111.539 268.208H92.4353ZM92.3873 263.984H106.499C106.147 262.032 105.331 260.56 104.051 259.568C102.803 258.576 101.331 258.08 99.6353 258.08C97.7153 258.08 96.1153 258.608 94.8353 259.664C93.5553 260.72 92.7393 262.16 92.3873 263.984ZM136.091 254V258.992H128.267V278H123.083V258.992H115.211V254H136.091ZM160.069 254H165.253V278H160.069V274.544C158.117 277.264 155.317 278.624 151.669 278.624C148.373 278.624 145.557 277.408 143.221 274.976C140.885 272.512 139.717 269.52 139.717 266C139.717 262.448 140.885 259.456 143.221 257.024C145.557 254.592 148.373 253.376 151.669 253.376C155.317 253.376 158.117 254.72 160.069 257.408V254ZM147.061 271.52C148.501 272.96 150.309 273.68 152.485 273.68C154.661 273.68 156.469 272.96 157.91 271.52C159.349 270.048 160.069 268.208 160.069 266C160.069 263.792 159.349 261.968 157.91 260.528C156.469 259.056 154.661 258.32 152.485 258.32C150.309 258.32 148.501 259.056 147.061 260.528C145.621 261.968 144.901 263.792 144.901 266C144.901 268.208 145.621 270.048 147.061 271.52ZM188.288 254H193.472V278H188.288V269.888C186.368 270.592 184.352 270.944 182.24 270.944C179.264 270.944 176.912 270.208 175.184 268.736C173.456 267.264 172.592 265.104 172.592 262.256V254H177.776V261.776C177.776 264.656 179.488 266.096 182.912 266.096C184.928 266.096 186.72 265.728 188.288 264.992V254Z" fill="#234A89"/>
<defs>
<linearGradient id="paint0_linear_14_1003" x1="110.531" y1="52.9084" x2="110.531" y2="66.1355" gradientUnits="userSpaceOnUse">
<stop offset="0.203125" stop-color="#F77D4A"/>
<stop offset="0.932292" stop-color="#FFB74A"/>
</linearGradient>
<linearGradient id="paint1_linear_14_1003" x1="101.308" y1="68.8669" x2="101.308" y2="85.3416" gradientUnits="userSpaceOnUse">
<stop offset="0.203125" stop-color="#F77D4A"/>
<stop offset="0.932292" stop-color="#FFB74A"/>
</linearGradient>
<linearGradient id="paint2_linear_14_1003" x1="110.382" y1="68.8669" x2="110.382" y2="85.3416" gradientUnits="userSpaceOnUse">
<stop offset="0.203125" stop-color="#F77D4A"/>
<stop offset="0.932292" stop-color="#FFB74A"/>
</linearGradient>
<linearGradient id="paint3_linear_14_1003" x1="119.593" y1="68.8669" x2="119.593" y2="85.3416" gradientUnits="userSpaceOnUse">
<stop offset="0.203125" stop-color="#F77D4A"/>
<stop offset="0.932292" stop-color="#FFB74A"/>
</linearGradient>
<linearGradient id="paint4_linear_14_1003" x1="104.469" y1="88.0945" x2="104.469" y2="200.535" gradientUnits="userSpaceOnUse">
<stop offset="0.203125" stop-color="#F77D4A"/>
<stop offset="0.932292" stop-color="#FFB74A"/>
</linearGradient>
<linearGradient id="paint5_linear_14_1003" x1="116.553" y1="88.0945" x2="116.553" y2="200.535" gradientUnits="userSpaceOnUse">
<stop offset="0.203125" stop-color="#F77D4A"/>
<stop offset="0.932292" stop-color="#FFB74A"/>
</linearGradient>
<linearGradient id="paint6_linear_14_1003" x1="110.51" y1="203.288" x2="110.51" y2="221.247" gradientUnits="userSpaceOnUse">
<stop offset="0.203125" stop-color="#F77D4A"/>
<stop offset="0.932292" stop-color="#FFB74A"/>
</linearGradient>
<clipPath id="clip0_14_1003">
<rect width="221" height="224" fill="white"/>
</clipPath>
</defs>
</svg>
