<svg width="35" height="35" viewBox="0 0 35 35" fill="none" xmlns="http://www.w3.org/2000/svg">
<path d="M30.0808 7.06616H4.91999C4.68275 7.06644 4.45532 7.16083 4.2876 7.32862C4.11988 7.4964 4.02558 7.72387 4.02539 7.96111V9.76151C4.02539 9.84446 4.11534 9.93966 4.18884 9.97816L17.4139 17.5322C17.4478 17.5516 17.4862 17.5616 17.5252 17.5613C17.5651 17.5614 17.6043 17.5507 17.6386 17.5305L30.464 9.98551C30.5361 9.94526 30.7272 9.83886 30.799 9.78986C30.8858 9.73071 30.9754 9.67716 30.9754 9.57111V7.96076C30.9751 7.72359 30.8808 7.4962 30.7131 7.32849C30.5454 7.16078 30.318 7.06644 30.0808 7.06616Z" fill="#1E4B8F"/>
<path d="M30.8639 12.4761C30.8295 12.4565 30.7905 12.4463 30.7509 12.4465C30.7112 12.4468 30.6724 12.4575 30.6382 12.4775L23.3802 16.7479C23.3513 16.7647 23.3266 16.7879 23.3078 16.8156C23.2891 16.8433 23.2768 16.8749 23.2719 16.9081C23.267 16.9412 23.2697 16.975 23.2796 17.0069C23.2896 17.0389 23.3066 17.0682 23.3295 17.0926L30.5885 24.9176C30.6093 24.9402 30.6346 24.9582 30.6627 24.9705C30.6908 24.9828 30.7212 24.9891 30.7519 24.989C30.8112 24.9889 30.8681 24.9653 30.91 24.9234C30.9519 24.8815 30.9755 24.8246 30.9756 24.7653V12.6704C30.9757 12.631 30.9655 12.5924 30.9459 12.5582C30.9263 12.5241 30.898 12.4958 30.8639 12.4761Z" fill="#1E4B8F"/>
<path d="M21.2886 18.1819C21.2541 18.1444 21.2078 18.1198 21.1574 18.1123C21.1071 18.1048 21.0556 18.1148 21.0117 18.1406L18.1025 19.8525C17.9321 19.9509 17.7389 20.0034 17.5421 20.0047C17.3452 20.006 17.1514 19.9561 16.9797 19.8598L14.4195 18.3972C14.3781 18.3736 14.3304 18.3638 14.2831 18.3693C14.2359 18.3747 14.1915 18.395 14.1566 18.4273L4.43431 27.4454C4.40882 27.4692 4.38925 27.4986 4.37716 27.5314C4.36507 27.5641 4.36079 27.5992 4.36467 27.6339C4.36854 27.6685 4.38046 27.7018 4.39948 27.7311C4.4185 27.7603 4.44409 27.7847 4.47421 27.8024C4.62541 27.8913 4.77136 27.9336 4.91976 27.9336H29.8233C29.8669 27.9337 29.9095 27.921 29.9459 27.897C29.9823 27.8731 30.0109 27.8389 30.0281 27.7989C30.0455 27.759 30.0509 27.715 30.0436 27.6721C30.0362 27.6292 30.0165 27.5895 29.9868 27.5577L21.2886 18.1819Z" fill="#1E4B8F"/>
<path d="M12.0173 17.3604C12.043 17.3366 12.0628 17.3071 12.0751 17.2742C12.0873 17.2414 12.0916 17.2061 12.0877 17.1712C12.0838 17.1364 12.0717 17.1029 12.0525 17.0736C12.0333 17.0443 12.0074 17.0199 11.977 17.0024L4.35894 12.6512C4.32495 12.6319 4.28648 12.6218 4.24738 12.6221C4.20829 12.6223 4.16994 12.6328 4.13617 12.6525C4.1024 12.6722 4.07439 12.7004 4.05495 12.7343C4.03551 12.7683 4.02532 12.8067 4.02539 12.8458V24.2628C4.02515 24.3064 4.03769 24.3491 4.06148 24.3857C4.08526 24.4222 4.11924 24.451 4.15921 24.4684C4.19918 24.4858 4.24338 24.4912 4.28635 24.4837C4.32931 24.4763 4.36915 24.4564 4.40094 24.4266L12.0173 17.3604Z" fill="#1E4B8F"/>
</svg>
